<svg xmlns="http://www.w3.org/2000/svg" width="800" height="500" viewBox="0 0 800 500">
  <defs>
    <linearGradient id="gbg" x1="0%" y1="0%" x2="0%" y2="100%">
      <stop offset="0%" style="stop-color:#a8e063"/>
      <stop offset="100%" style="stop-color:#56ab2f"/>
    </linearGradient>
    <linearGradient id="lensg" x1="0%" y1="0%" x2="100%" y2="100%">
      <stop offset="0%" style="stop-color:#555"/>
      <stop offset="100%" style="stop-color:#222"/>
    </linearGradient>
  </defs>
  <rect width="800" height="500" fill="url(#gbg)"/>
  <!-- Flower field -->
  <circle cx="100" cy="400" r="4" fill="#FF6B6B" opacity="0.7"/>
  <circle cx="150" cy="380" r="3" fill="#FFE066" opacity="0.7"/>
  <circle cx="200" cy="410" r="5" fill="#FF6B6B" opacity="0.6"/>
  <circle cx="250" cy="395" r="3" fill="#fff" opacity="0.5"/>
  <circle cx="300" cy="420" r="4" fill="#FF6B6B" opacity="0.7"/>
  <circle cx="350" cy="385" r="5" fill="#FFE066" opacity="0.6"/>
  <circle cx="400" cy="405" r="3" fill="#FF6B6B" opacity="0.7"/>
  <circle cx="450" cy="390" r="4" fill="#fff" opacity="0.5"/>
  <circle cx="500" cy="415" r="5" fill="#FFE066" opacity="0.6"/>
  <circle cx="550" cy="380" r="3" fill="#FF6B6B" opacity="0.7"/>
  <circle cx="600" cy="400" r="4" fill="#fff" opacity="0.5"/>
  <circle cx="650" cy="390" r="3" fill="#FFE066" opacity="0.6"/>
  <circle cx="700" cy="410" r="4" fill="#FF6B6B" opacity="0.7"/>
  <!-- Stems -->
  <line x1="100" y1="400" x2="100" y2="450" stroke="#2d6a2d" stroke-width="1" opacity="0.5"/>
  <line x1="200" y1="410" x2="200" y2="455" stroke="#2d6a2d" stroke-width="1" opacity="0.5"/>
  <line x1="400" y1="405" x2="400" y2="450" stroke="#2d6a2d" stroke-width="1" opacity="0.5"/>
  <!-- Butterfly -->
  <ellipse cx="300" cy="340" rx="12" ry="5" fill="#e94560" opacity="0.7" transform="rotate(-20 300 340)"/>
  <ellipse cx="310" cy="340" rx="12" ry="5" fill="#e94560" opacity="0.7" transform="rotate(20 310 340)"/>
  <line x1="305" y1="340" x2="305" y2="348" stroke="#333" stroke-width="1"/>
  <!-- Camera front view -->
  <g transform="translate(550, 200)">
    <rect x="0" y="0" width="100" height="80" rx="8" fill="url(#lensg)" stroke="#777" stroke-width="1.5"/>
    <circle cx="50" cy="40" r="25" fill="#111" stroke="#888" stroke-width="2"/>
    <circle cx="50" cy="40" r="15" fill="#333" stroke="#666" stroke-width="1"/>
    <circle cx="50" cy="40" r="6" fill="#e94560" opacity="0.5"/>
    <circle cx="75" cy="15" r="4" fill="#FFE066" opacity="0.8"/>
    <rect x="10" y="10" width="8" height="8" rx="2" fill="#555"/>
    <rect x="85" y="10" width="10" height="6" rx="2" fill="#555"/>
  </g>
  <text x="400" y="480" font-family="Georgia, serif" font-size="18" fill="rgba(255,255,255,0.7)" text-anchor="middle" letter-spacing="1">🌿 微距 · 发现细微之美</text>
</svg>
